<?xml version="1.0" encoding="UTF-8"?>
<!DOCTYPE svg PUBLIC "-//W3C//DTD SVG 1.1//EN" "http://www.w3.org/Graphics/SVG/1.1/DTD/svg11.dtd">
<svg xmlns="http://www.w3.org/2000/svg" version="1.1" width="2500px" height="1500px" style="shape-rendering:geometricPrecision; text-rendering:geometricPrecision; image-rendering:optimizeQuality; fill-rule:evenodd; clip-rule:evenodd" xmlns:xlink="http://www.w3.org/1999/xlink">
<g><path style="opacity:1" fill="#efdec7" d="M -0.5,-0.5 C 832.833,-0.5 1666.17,-0.5 2499.5,-0.5C 2499.5,499.5 2499.5,999.5 2499.5,1499.5C 1666.17,1499.5 832.833,1499.5 -0.5,1499.5C -0.5,999.5 -0.5,499.5 -0.5,-0.5 Z"/></g>
<g><path style="opacity:1" fill="#333332" d="M 884.5,654.5 C 896.539,654.192 908.539,654.692 920.5,656C 943.334,661.584 966.168,667.084 989,672.5C 995.293,669.769 1001.46,666.603 1007.5,663C 1023.57,656.513 1039.91,655.846 1056.5,661C 1067.72,666.705 1069.39,674.371 1061.5,684C 1058.05,685.927 1054.39,687.261 1050.5,688C 1032.33,689.295 1014.33,688.128 996.5,684.5C 993.729,684.756 991.562,686.09 990,688.5C 983.946,697.942 978.946,707.942 975,718.5C 965.132,747.771 955.465,777.104 946,806.5C 941.084,821.002 934.084,834.335 925,846.5C 911.103,860.525 894.269,866.025 874.5,863C 852.758,856.695 841.758,842.195 841.5,819.5C 843.548,791.605 858.215,774.105 885.5,767C 889.956,766.133 894.289,766.466 898.5,768C 900.013,770.916 899.68,773.582 897.5,776C 876.269,777.527 861.435,788.027 853,807.5C 847.876,828.074 854.709,842.907 873.5,852C 893.927,856.08 910.094,849.58 922,832.5C 925.588,826.325 928.922,819.991 932,813.5C 943.198,780.907 954.198,748.241 965,715.5C 969.446,703.942 974.946,692.942 981.5,682.5C 958.327,674.957 934.661,669.124 910.5,665C 892.17,661.317 876.67,666.15 864,679.5C 857.763,691.705 858.097,703.705 865,715.5C 873.793,723.076 883.959,725.576 895.5,723C 901.201,721.599 906.867,720.099 912.5,718.5C 917.151,719.193 918.651,721.859 917,726.5C 903.936,733.557 890.103,735.724 875.5,733C 854.773,725.906 845.939,711.406 849,689.5C 853.437,670.229 865.271,658.562 884.5,654.5 Z"/></g>
<g><path style="opacity:1" fill="#e6d6c0" d="M 1027.5,667.5 C 1037.24,666.725 1046.58,668.225 1055.5,672C 1056.83,673.333 1056.83,674.667 1055.5,676C 1039.54,679.203 1023.54,679.203 1007.5,676C 1007.17,675.667 1006.83,675.333 1006.5,675C 1013.34,671.718 1020.34,669.218 1027.5,667.5 Z"/></g>
<g><path style="opacity:1" fill="#333332" d="M 1188.5,689.5 C 1193.81,689.644 1195.98,692.31 1195,697.5C 1180.33,737.85 1166.66,778.517 1154,819.5C 1150.77,838.071 1157.6,842.905 1174.5,834C 1183.53,825.965 1190.69,816.465 1196,805.5C 1201.25,794.745 1205.92,783.745 1210,772.5C 1215.99,760.021 1223.82,748.854 1233.5,739C 1244.52,730.255 1256.19,729.255 1268.5,736C 1273.58,739.99 1276.75,745.157 1278,751.5C 1278.89,764.299 1276.89,776.633 1272,788.5C 1268.21,798.392 1264.21,808.059 1260,817.5C 1266.7,823.575 1273.87,824.075 1281.5,819C 1289.99,811.548 1296.16,802.382 1300,791.5C 1303,788.833 1306,788.833 1309,791.5C 1306.07,805.466 1299.24,817.3 1288.5,827C 1276.56,834.466 1264.73,834.3 1253,826.5C 1247.49,832.344 1241.66,837.844 1235.5,843C 1213.8,854.565 1200.97,848.398 1197,824.5C 1190.59,834.911 1181.76,842.411 1170.5,847C 1153.48,851.571 1143.98,845.071 1142,827.5C 1135.72,837.06 1127.22,843.894 1116.5,848C 1103.94,849.775 1095.77,844.608 1092,832.5C 1091.23,828.853 1090.56,825.186 1090,821.5C 1077.88,834.136 1064.38,835.802 1049.5,826.5C 1041.69,836.138 1032.02,843.305 1020.5,848C 1001.69,849.191 992.69,840.191 993.5,821C 995.885,789.906 1007.55,762.906 1028.5,740C 1039.06,730.744 1050.72,729.078 1063.5,735C 1071.29,740.405 1074.95,747.905 1074.5,757.5C 1072.48,778.551 1066.14,798.217 1055.5,816.5C 1059.63,821.601 1064.97,823.434 1071.5,822C 1078.14,819.697 1083.31,815.531 1087,809.5C 1092.89,799.851 1097.22,789.518 1100,778.5C 1106.07,762.836 1115.24,749.336 1127.5,738C 1138.41,730.162 1149.74,729.495 1161.5,736C 1164.04,738.205 1166.21,740.705 1168,743.5C 1173.67,727.167 1179.33,710.833 1185,694.5C 1186,692.677 1187.16,691.01 1188.5,689.5 Z"/></g>
<g><path style="opacity:1" fill="#333332" d="M 1452.5,730.5 C 1454.53,730.338 1456.53,730.505 1458.5,731C 1459.89,731.956 1460.56,733.289 1460.5,735C 1450.74,760.604 1441.58,786.437 1433,812.5C 1430.76,819.351 1430.09,826.351 1431,833.5C 1431.47,834.931 1432.3,836.097 1433.5,837C 1439.02,838.287 1444.02,837.287 1448.5,834C 1458.65,823.559 1466.15,811.392 1471,797.5C 1478.41,775.602 1486.41,753.936 1495,732.5C 1498.29,729.689 1501.29,730.022 1504,733.5C 1503.96,736.563 1503.62,739.563 1503,742.5C 1512.44,730.791 1523.94,727.958 1537.5,734C 1544.39,740.118 1547.39,747.784 1546.5,757C 1544.96,778.301 1538.96,798.301 1528.5,817C 1533.03,822.469 1538.7,823.802 1545.5,821C 1553.33,817.167 1559.17,811.333 1563,803.5C 1571.44,779.496 1580.28,755.662 1589.5,732C 1592.83,729.709 1595.67,730.209 1598,733.5C 1598.07,736.593 1597.74,739.593 1597,742.5C 1606.03,731.454 1617.19,728.288 1630.5,733C 1638.76,739.501 1642.09,748.001 1640.5,758.5C 1639.21,778.884 1633.37,797.884 1623,815.5C 1622.32,816.784 1622.48,817.951 1623.5,819C 1629.6,823.298 1635.93,823.632 1642.5,820C 1652.31,813.212 1658.81,804.045 1662,792.5C 1666.39,788.094 1669.89,788.594 1672.5,794C 1668.34,810.147 1659,822.147 1644.5,830C 1634.42,834.16 1625.08,832.994 1616.5,826.5C 1608.64,837.428 1598.31,844.928 1585.5,849C 1575.23,850.915 1567.06,847.749 1561,839.5C 1552.88,862.538 1544.38,885.371 1535.5,908C 1529,909.5 1526.5,907 1528,900.5C 1536.96,876.603 1545.3,852.603 1553,828.5C 1542.35,834.375 1532.18,833.709 1522.5,826.5C 1514.65,837.424 1504.32,844.924 1491.5,849C 1481.12,851.209 1472.95,848.042 1467,839.5C 1458.5,862.35 1450,885.183 1441.5,908C 1434.49,909.324 1431.99,906.49 1434,899.5C 1440.9,880.453 1447.57,861.453 1454,842.5C 1444.47,849.893 1434.8,850.226 1425,843.5C 1422.05,838.931 1420.22,833.931 1419.5,828.5C 1413.19,838.153 1404.53,844.653 1393.5,848C 1379.31,849.298 1371.14,842.798 1369,828.5C 1368.79,800.809 1376.45,775.476 1392,752.5C 1398.36,743.467 1406.53,736.634 1416.5,732C 1428.99,729.335 1438.82,733.168 1446,743.5C 1447.71,738.847 1449.87,734.514 1452.5,730.5 Z"/></g>
<g><path style="opacity:1" fill="#eddcc6" d="M 1520.5,741.5 C 1528.78,739.294 1533.94,742.294 1536,750.5C 1536.8,758.943 1536.13,767.276 1534,775.5C 1531.4,783.975 1528.4,792.308 1525,800.5C 1525.35,797.457 1525.18,794.457 1524.5,791.5C 1518.6,787.869 1515.1,789.536 1514,796.5C 1513.04,803.134 1513.54,809.634 1515.5,816C 1510.51,824.987 1503.51,831.987 1494.5,837C 1479.1,841.275 1472.94,835.442 1476,819.5C 1482.82,797.359 1492.16,776.359 1504,756.5C 1508.45,750.213 1513.95,745.213 1520.5,741.5 Z"/></g>
<g><path style="opacity:1" fill="#eddcc6" d="M 1615.5,741.5 C 1623,739.663 1627.84,742.329 1630,749.5C 1631.19,767.538 1627.53,784.538 1619,800.5C 1618.5,798.473 1618.67,796.473 1619.5,794.5C 1619.37,791.196 1617.7,789.53 1614.5,789.5C 1612.63,789.39 1611.13,790.056 1610,791.5C 1608.13,795.619 1607.3,799.952 1607.5,804.5C 1607.75,809.275 1608.25,813.942 1609,818.5C 1604.06,826.772 1597.23,832.939 1588.5,837C 1576.12,842.259 1569.78,838.259 1569.5,825C 1575.64,800.261 1585.47,777.094 1599,755.5C 1603.51,749.52 1609.01,744.854 1615.5,741.5 Z"/></g>
<g><path style="opacity:1" fill="#eddcc6" d="M 1045.5,741.5 C 1059.91,741.086 1066.08,748.086 1064,762.5C 1062.14,775.066 1058.48,787.066 1053,798.5C 1053.57,790.035 1050.23,787.702 1043,791.5C 1041.95,795.245 1041.45,799.079 1041.5,803C 1041.94,808.182 1042.11,813.349 1042,818.5C 1036.79,825.375 1030.63,831.208 1023.5,836C 1009.29,840.629 1002.96,835.463 1004.5,820.5C 1006.92,791.826 1017.92,766.993 1037.5,746C 1040.1,744.205 1042.77,742.705 1045.5,741.5 Z"/></g>
<g><path style="opacity:1" fill="#eeddc6" d="M 1141.5,741.5 C 1155.75,741.252 1162.25,748.252 1161,762.5C 1153.34,782.825 1144.34,802.491 1134,821.5C 1129.41,828.096 1123.57,833.262 1116.5,837C 1109.46,839.35 1104.63,837.183 1102,830.5C 1101.12,799.13 1110.96,771.63 1131.5,748C 1134.73,745.56 1138.06,743.394 1141.5,741.5 Z"/></g>
<g><path style="opacity:1" fill="#eddcc6" d="M 1249.5,741.5 C 1257.42,740.711 1263.26,743.711 1267,750.5C 1267.77,768.095 1264.1,784.762 1256,800.5C 1256.13,797.514 1256.13,794.514 1256,791.5C 1253,788.833 1250,788.833 1247,791.5C 1245.19,799.598 1245.02,807.765 1246.5,816C 1241.46,825.375 1234.12,832.375 1224.5,837C 1216.55,839.698 1211.38,837.198 1209,829.5C 1207.68,808.449 1212.35,788.782 1223,770.5C 1227.97,760.862 1234.47,752.362 1242.5,745C 1244.93,743.787 1247.26,742.621 1249.5,741.5 Z"/></g>
<g><path style="opacity:1" fill="#edddc6" d="M 1419.5,741.5 C 1433.26,741.097 1439.76,747.764 1439,761.5C 1431.61,782.272 1422.61,802.272 1412,821.5C 1407.41,828.096 1401.57,833.262 1394.5,837C 1387.46,839.35 1382.63,837.183 1380,830.5C 1378.84,803.32 1386.17,778.653 1402,756.5C 1406.5,749.821 1412.34,744.821 1419.5,741.5 Z"/></g>
</svg>
